<?xml version="1.0" standalone="no"?>
<!DOCTYPE svg PUBLIC "-//W3C//DTD SVG 20010904//EN"
 "http://www.w3.org/TR/2001/REC-SVG-20010904/DTD/svg10.dtd">
<svg version="1.0" xmlns="http://www.w3.org/2000/svg"
 width="500.000000pt" height="500.000000pt" viewBox="0 0 500.000000 500.000000"
 preserveAspectRatio="xMidYMid meet">

<g transform="translate(0.000000,500.000000) scale(0.100000,-0.100000)"
fill="#000000" stroke="none">
<path d="M2460 4691 c-60 -18 -104 -59 -466 -423 -399 -401 -417 -422 -480
-573 -26 -63 -29 -81 -29 -185 0 -91 5 -130 22 -185 64 -202 233 -370 467
-465 192 -78 348 -106 666 -120 264 -12 379 -23 514 -51 286 -58 449 -182 502
-381 28 -106 10 -354 -41 -547 -8 -30 -13 -56 -12 -58 3 -2 637 595 796 751
52 50 102 109 112 131 23 49 24 113 4 163 -11 26 -293 315 -958 980 -880 881
-945 943 -991 957 -54 16 -68 17 -106 6z"/>
<path d="M962 2779 c-243 -230 -448 -433 -457 -449 -24 -47 -28 -109 -11 -158
13 -36 171 -200 938 -973 546 -550 941 -942 968 -957 58 -35 145 -37 205 -5
36 19 383 362 696 688 100 103 122 133 163 215 54 110 78 210 70 290 -26 250
-177 456 -422 579 -186 93 -392 136 -739 151 -131 6 -290 18 -354 25 -387 48
-604 182 -664 410 -29 112 -14 320 39 540 8 33 14 61 13 62 -2 1 -201 -187
-445 -418z"/>
</g>
</svg>
